<?xml version="1.0" encoding="utf-8"?>
<!-- Generator: Adobe Illustrator 27.9.3, SVG Export Plug-In . SVG Version: 9.03 Build 53313)  -->
<svg version="1.1" id="Layer_1" xmlns="http://www.w3.org/2000/svg" xmlns:xlink="http://www.w3.org/1999/xlink" x="0px" y="0px"
	 viewBox="0 0 1080 1080" style="enable-background:new 0 0 1080 1080;" xml:space="preserve">
<style type="text/css">
	.st0{fill:url(#SVGID_1_);}
	.st1{fill:url(#SVGID_00000019670264820605642750000003557480758942122395_);}
</style>
<linearGradient id="SVGID_1_" gradientUnits="userSpaceOnUse" x1="542.0015" y1="364.4718" x2="542.0015" y2="715.5283">
	<stop  offset="0" style="stop-color:#F7E318"/>
	<stop  offset="1" style="stop-color:#C69200"/>
</linearGradient>
<path class="st0" d="M393.5,541.9h-59.4v-76.5h59.4V541.9z M393.5,555.8h-59.4v66.6h59.4V555.8z M393.5,635.5h-59.4v80h59.4V635.5z
	 M669.1,364.5L542,483.4L414.9,364.5h-80.7V455h59.4v-48.8L542,542.8l148.4-136.6V455h59.4v-90.5H669.1z M542,559.2L408.3,440.8
	v60.3L542,629.5l133.7-128.4v-60.3L542,559.2z M690.5,541.9h59.4v-76.5h-59.4V541.9z M690.5,622.4h59.4v-66.6h-59.4V622.4z
	 M690.5,715.5h59.4v-80h-59.4V715.5z"/>
<linearGradient id="SVGID_00000176037607917708399610000017594225162289682319_" gradientUnits="userSpaceOnUse" x1="188.4543" y1="188.4546" x2="891.5473" y2="891.5475">
	<stop  offset="0" style="stop-color:#F7E318"/>
	<stop  offset="1" style="stop-color:#C69200"/>
</linearGradient>
<path style="fill:url(#SVGID_00000176037607917708399610000017594225162289682319_);" d="M540,1049.2c-71.6,0-123.6-48.7-165.3-87.9
	c-18.9-17.8-36.8-34.5-52.7-43.7c-17.2-9.9-41.5-17.5-67.2-25.5C198,874.5,133.6,854.5,99,794.7c-33.6-58.2-19.3-123.1-6.6-180.4
	c6-27.2,11.7-52.9,11.7-74.3s-5.7-47.1-11.7-74.3c-12.7-57.3-27-122.2,6.6-180.4c34.6-59.8,99-79.8,155.8-97.4
	c25.7-8,50.1-15.5,67.2-25.5c15.9-9.2,33.8-26,52.7-43.7c41.7-39.1,93.7-87.9,165.3-87.9c71.6,0,123.6,48.7,165.3,87.9
	c18.9,17.8,36.8,34.5,52.7,43.7c17.2,9.9,41.5,17.5,67.2,25.5c56.8,17.6,121.2,37.6,155.8,97.4c33.6,58.2,19.3,123.1,6.6,180.4
	c-6,27.2-11.7,52.9-11.7,74.3s5.7,47.1,11.7,74.3c12.7,57.3,27,122.2-6.6,180.4c-34.6,59.8-99,79.8-155.8,97.4
	c-25.7,8-50.1,15.5-67.2,25.5c-15.9,9.2-33.8,26-52.7,43.7C663.6,1000.5,611.6,1049.2,540,1049.2z M540,148
	c-25.3,0-55.7,28.5-85.1,56.1c-22.9,21.5-46.6,43.7-74.2,59.7c-28.5,16.5-60.4,26.4-91.2,36c-38.1,11.8-77.4,24-89.1,44.2
	c-10.8,18.7-2.1,58.2,6.4,96.4c7.1,32.2,14.5,65.4,14.5,99.6s-7.3,67.5-14.5,99.6c-8.4,38.2-17.2,77.7-6.4,96.4
	c11.7,20.1,51,32.4,89.1,44.2c30.8,9.6,62.6,19.4,91.2,36c27.6,16,51.3,38.2,74.2,59.7c29.4,27.6,59.8,56.1,85.1,56.1
	c25.3,0,55.7-28.5,85.1-56.1c22.9-21.5,46.6-43.7,74.2-59.7c28.5-16.5,60.4-26.4,91.2-36c38.1-11.8,77.4-24,89.1-44.2
	c10.8-18.7,2.1-58.2-6.4-96.4c-7.1-32.2-14.5-65.4-14.5-99.6s7.3-67.5,14.5-99.6c8.4-38.2,17.2-77.7,6.4-96.4
	c-11.7-20.1-51-32.4-89.1-44.2c-30.8-9.6-62.6-19.4-91.2-36c-27.6-16-51.3-38.2-74.2-59.7C595.7,176.5,565.3,148,540,148z"/>
</svg>
