<?xml version="1.0" encoding="utf-8"?>
<!-- Generator: Adobe Illustrator 27.9.3, SVG Export Plug-In . SVG Version: 9.03 Build 53313)  -->
<svg version="1.1" id="Layer_1" xmlns="http://www.w3.org/2000/svg" xmlns:xlink="http://www.w3.org/1999/xlink" x="0px" y="0px"
	 viewBox="0 0 640 480" style="enable-background:new 0 0 640 480;" xml:space="preserve">
<rect x="100.2" y="161.3" width="62.8" height="80.9"/>
<rect x="100.2" y="256.8" width="62.8" height="70.4"/>
<rect x="100.2" y="341.1" width="62.8" height="84.6"/>
<polygon points="454.5,54.5 320,180.2 185.6,54.5 100.2,54.5 100.2,150.2 163.1,150.2 163.1,98.6 320,243.1 477,98.6 477,150.2 
	539.8,150.2 539.8,54.5 "/>
<polygon points="320,260.4 178.7,135.2 178.7,199 320,334.7 461.4,199 461.4,135.2 "/>
<rect x="477" y="161.3" transform="matrix(-1 -4.446144e-11 4.446144e-11 -1 1016.8655 403.4212)" width="62.8" height="80.9"/>
<rect x="477" y="256.8" transform="matrix(-1 -4.498281e-11 4.498281e-11 -1 1016.8655 584.0276)" width="62.8" height="70.4"/>
<rect x="477" y="341.1" transform="matrix(-1 -4.509871e-11 4.509871e-11 -1 1016.8655 766.7586)" width="62.8" height="84.6"/>
</svg>
